<?xml version="1.0" encoding="UTF-8" standalone="no"?>
<!-- Created with Inkscape (http://www.inkscape.org/) -->

<svg
   xmlns:dc="http://purl.org/dc/elements/1.1/"
   xmlns:cc="http://creativecommons.org/ns#"
   xmlns:rdf="http://www.w3.org/1999/02/22-rdf-syntax-ns#"
   xmlns:svg="http://www.w3.org/2000/svg"
   xmlns="http://www.w3.org/2000/svg"
   xmlns:sodipodi="http://sodipodi.sourceforge.net/DTD/sodipodi-0.dtd"
   xmlns:inkscape="http://www.inkscape.org/namespaces/inkscape"
   id="svg3406"
   version="1.1"
   inkscape:version="0.91 r13725"
   width="281.34558"
   height="657.37805"
   viewBox="0 0 281.34558 657.37805"
   sodipodi:docname="silhouette-femme-27.svg">
  <title
     id="title3340">Silhouette Femme 27</title>
  <metadata
     id="metadata3412">
    <rdf:RDF>
      <cc:Work
         rdf:about="">
        <dc:format>image/svg+xml</dc:format>
        <dc:type
           rdf:resource="http://purl.org/dc/dcmitype/StillImage" />
        <dc:title>Silhouette Femme 27</dc:title>
        <cc:license
           rdf:resource="http://creativecommons.org/publicdomain/zero/1.0/" />
        <dc:date>2017-02-21</dc:date>
        <dc:creator>
          <cc:Agent>
            <dc:title>JLouis</dc:title>
          </cc:Agent>
        </dc:creator>
        <dc:rights>
          <cc:Agent>
            <dc:title>Domaine pubic</dc:title>
          </cc:Agent>
        </dc:rights>
        <dc:publisher>
          <cc:Agent>
            <dc:title>inkscape</dc:title>
          </cc:Agent>
        </dc:publisher>
        <dc:subject>
          <rdf:Bag>
            <rdf:li>Silhouette</rdf:li>
            <rdf:li>woman</rdf:li>
            <rdf:li>femme</rdf:li>
          </rdf:Bag>
        </dc:subject>
        <dc:description>Woman in silhouette - Femme en silhouette</dc:description>
      </cc:Work>
      <cc:License
         rdf:about="http://creativecommons.org/publicdomain/zero/1.0/">
        <cc:permits
           rdf:resource="http://creativecommons.org/ns#Reproduction" />
        <cc:permits
           rdf:resource="http://creativecommons.org/ns#Distribution" />
        <cc:permits
           rdf:resource="http://creativecommons.org/ns#DerivativeWorks" />
      </cc:License>
    </rdf:RDF>
  </metadata>
  <defs
     id="defs3410" />
  <sodipodi:namedview
     pagecolor="#ffffff"
     bordercolor="#666666"
     borderopacity="1"
     objecttolerance="10"
     gridtolerance="10"
     guidetolerance="10"
     inkscape:pageopacity="0"
     inkscape:pageshadow="2"
     inkscape:window-width="1237"
     inkscape:window-height="756"
     id="namedview3408"
     showgrid="false"
     fit-margin-top="0"
     fit-margin-left="0"
     fit-margin-right="0"
     fit-margin-bottom="0"
     inkscape:zoom="0.85931559"
     inkscape:cx="131.31527"
     inkscape:cy="327.60083"
     inkscape:window-x="0"
     inkscape:window-y="0"
     inkscape:window-maximized="1"
     inkscape:current-layer="svg3406" />
  <g
     id="g3416"
     transform="translate(0,-0.13649601)">
    <path
       style="fill:#fce8e8"
       d="M 84.47464,654.58827 C 82.701087,652.81473 81.25,650.77556 81.25,650.05681 c 0,-0.71875 -1.105626,-1.30681 -2.456946,-1.30681 -2.000862,0 -2.609181,-1.1476 -3.277036,-6.18214 -0.770035,-5.80481 -1.058771,-6.20536 -4.730554,-6.5625 -2.951141,-0.28705 -4.007859,-1.06578 -4.307474,-3.17432 -0.383998,-2.70239 -0.542637,-2.73313 -4.840155,-0.9375 -7.711646,3.22212 -12.501384,2.3256 -11.785861,-2.20604 C 49.933389,629.17187 48.875,628.75 47.5,628.75 c -3.200575,0 -3.209051,-2.2037 -0.09457,-24.58731 1.32298,-9.50823 3.6042,-28.81894 5.069377,-42.91269 3.312823,-31.86653 3.960384,-35.66964 9.364918,-55 2.402709,-8.59375 4.377949,-16.8199 4.389422,-18.28034 0.0115,-1.46043 0.87053,-5.06356 1.909012,-8.00692 2.61287,-7.40567 4.256914,-18.63005 2.855609,-19.4961 -0.627068,-0.38755 -0.792551,-2.28713 -0.367742,-4.22126 0.42481,-1.93415 -0.07815,-7.64623 -1.117696,-12.69351 C 68.468778,438.50459 66.483576,427.34375 65.096761,418.75 61.603434,397.10271 59.372929,386.57621 56.885858,380 c -3.38876,-8.96042 -2.189367,-24.68378 2.676002,-35.08084 2.100853,-4.48941 5.588916,-10.17756 7.751253,-12.64034 l 3.931518,-4.47775 -4.059815,-1.61995 C 64.951918,325.29015 54.96875,319.18608 45,312.6165 31.692304,303.84651 23.303551,297.1614 13.4375,287.4639 0.54801891,274.79462 0,274.04005 0,268.96144 c 0,-3.21918 1.2694516,-7.79969 3.2385385,-11.6855 4.1916046,-8.27173 16.2322365,-24.02656 23.2339125,-30.40094 3.020629,-2.75 7.388907,-8.375 9.707283,-12.5 5.510857,-9.80526 11.290067,-16.9258 16.80133,-20.70082 4.222098,-2.89201 4.446585,-3.40398 4.355165,-9.93253 -0.05301,-3.78584 0.511565,-9.14111 1.254619,-11.9006 0.743053,-2.7595 1.632322,-7.2145 1.976153,-9.90001 0.34383,-2.6855 1.341288,-5.33724 2.216573,-5.89275 1.288422,-0.8177 1.288443,-1.01365 1.1e-4,-1.02915 -1.185634,-0.0143 -1.089208,-0.78545 0.378238,-3.02506 1.083254,-1.65325 2.095183,-4.32513 2.248729,-5.9375 0.153548,-1.61237 0.883975,-4.05658 1.623175,-5.43158 0.7392,-1.375 2.027829,-6.15625 2.86362,-10.625 0.835792,-4.46875 2.012733,-10.375 2.615426,-13.125 1.096224,-5.00191 2.205419,-14.5363 3.049187,-26.210154 0.246873,-3.415583 0.956562,-6.379386 1.577087,-6.586228 0.620525,-0.206842 3.76915,-2.87077 6.996944,-5.91984 8.441583,-7.974172 13.092974,-9.886864 21.49158,-8.837528 3.77978,0.472253 6.87233,1.440846 6.87233,2.152431 0,0.711585 0.84375,0.970014 1.875,0.574286 1.03125,-0.395728 1.875,-0.105783 1.875,0.64432 0,0.899639 0.63817,0.834193 1.875,-0.192287 C 119.66064,71.225536 120,71.310956 120,72.971944 120,74.087375 120.71495,75 121.58879,75 c 2.19156,0 12.01398,10.033892 16.78673,17.148136 2.15482,3.211963 2.45504,22.521304 0.38239,24.593944 -0.69185,0.69186 -1.27126,4.09855 -1.28759,7.57042 -0.0186,3.96766 -1.23085,9.09845 -3.26335,13.8125 -1.77852,4.125 -3.29196,8.48437 -3.36318,9.6875 -0.0713,1.20312 -0.57147,2.1875 -1.11165,2.1875 -1.43488,0 -1.20242,5.96631 0.26786,6.875 1.89096,1.16867 1.50029,4.52659 -0.82568,7.09674 -1.14161,1.26147 -1.65914,2.71011 -1.15006,3.21918 0.88666,0.88668 2.17145,-0.42715 14.15586,-14.47582 2.91783,-3.4204 7.98033,-7.78439 11.25,-9.69776 7.83009,-4.58205 7.87979,-4.63908 15.56479,-17.85769 3.64655,-6.27224 7.895,-13.51471 9.44101,-16.09437 1.54602,-2.57965 3.38183,-6.74773 4.0796,-9.262385 C 184.49611,92.66524 191.67141,83.062652 206.18607,68.125 213.53442,60.5625 222.12921,51 225.2856,46.875 235.55955,33.44824 251.09702,20 256.33574,20 c 2.13872,0 3.88697,-4.336348 6.67735,-16.5625 0.96816,-4.2420232 2.84712,-4.4106236 4.66597,-0.41868 1.00259,2.2004335 0.99671,5.1655331 -0.0216,10.9375 l -1.39713,7.91868 4.68235,4.101106 c 2.5753,2.255609 5.94799,4.632311 7.49486,5.281561 4.59012,1.926548 3.58428,5.910489 -1.875,7.426607 -2.57812,0.715981 -5.59387,1.304921 -6.70166,1.308755 -1.47335,0.0051 -1.85376,0.846047 -1.41677,3.131971 0.48501,2.5372 0.0997,3.125 -2.04834,3.125 -1.45517,0 -2.64575,-0.595698 -2.64575,-1.323771 0,-0.728074 -0.66925,-0.910149 -1.48724,-0.40461 -0.81797,0.50554 -4.88658,1.104512 -9.04136,1.331051 -5.83506,0.318156 -8.17632,1.050266 -10.2882,3.217109 C 240.67606,51.385665 227.5,73.124287 227.5,74.53235 c 0,1.266803 -21.92949,37.5862 -25.58951,42.38109 -2.37799,3.11533 -8.83741,14.50613 -14.35429,25.3129 -5.51687,10.80676 -12.80334,23.0296 -16.19214,27.16185 -3.3888,4.13226 -8.12807,10.99251 -10.53173,15.24501 l -4.37028,7.73181 4.05985,3.0966 c 2.23291,1.70313 7.12359,6.09288 10.86815,9.75499 6.50126,6.35811 6.82125,6.97362 7.0951,13.64799 0.23371,5.69567 -0.4192,8.35678 -3.52694,14.375 -2.93765,5.68882 -4.08022,10.02931 -4.97377,18.89455 -0.63801,6.33002 -1.46291,12.79877 -1.8331,14.375 -0.3702,1.57622 -1.24576,9.05336 -1.94569,16.61586 -2.3276,25.1491 -5.78237,49.86187 -8.65192,61.88916 -3.46258,14.51291 -3.21064,15.2737 10.55126,31.86084 11.28856,13.60605 20.75449,28.13461 36.56796,56.12546 15.66289,27.72433 16.0081,28.93093 12.82293,44.81955 -3.13034,15.61503 -3.12874,21.9953 0.01,38.43246 1.37801,7.21739 3.62353,20.99753 4.99003,30.62253 1.3665,9.625 4.57705,30.35784 7.13457,46.07296 4.495,27.62059 4.57276,28.62945 2.33268,30.26743 -1.27451,0.93195 -2.75371,1.85536 -3.2871,2.05203 -0.5334,0.19667 -0.67378,1.88099 -0.31198,3.74294 0.48365,2.48904 1.79195,3.75966 4.94133,4.79905 5.63399,1.85939 8.17279,5.76255 6.89804,10.60511 -0.8681,3.2978 -1.8721,3.94428 -9.0274,5.8127 -17.00145,4.43949 -26.30442,2.40949 -30.86316,-6.73461 -1.54688,-3.1028 -2.8125,-6.48835 -2.8125,-7.52345 0,-3.5043 -5.0118,-8.47014 -8.52823,-8.45002 -5.26261,0.0301 -6.6448,1.66041 -7.52547,8.87645 -0.68619,5.62231 -1.23259,6.72941 -3.3213,6.72941 -2.15691,0 -2.51759,-0.87605 -2.62816,-6.3836 -0.16687,-8.29136 -0.88578,-9.2414 -6.99362,-9.2414 l -5.09885,0 0.87686,-8.4375 c 0.48228,-4.64063 1.3712,-14.34375 1.97539,-21.5625 0.60419,-7.21875 1.68705,-19.3125 2.40636,-26.875 0.71932,-7.5625 1.87404,-21.72501 2.56608,-31.47225 0.69203,-9.74723 1.8147,-20.43473 2.49484,-23.75 1.55721,-7.59055 2.8628,-21.35877 2.91453,-30.73568 0.0334,-6.04318 -0.4776,-7.76007 -3.16199,-10.625 -1.76098,-1.87938 -4.34561,-5.66707 -5.74362,-8.41707 -2.76503,-5.43906 -45.91443,-50.09192 -46.85173,-48.4842 -0.31558,0.54131 -0.95337,4.9217 -1.41731,9.7342 -2.27916,23.64205 -8.21008,49.94557 -14.61988,64.83894 -5.463612,12.69485 -7.68008,20.68966 -6.770961,24.42289 0.43371,1.78099 1.260106,5.20692 1.836435,7.61317 1.945796,8.12396 16.305406,61.77444 20.073836,75 9.13466,32.05872 9.12783,30.93644 0.19588,32.13446 -4.69278,0.62943 -5.09202,0.97215 -4.75188,4.07916 0.20423,1.86559 1.59525,5.11082 3.09114,7.21159 3.28547,4.61403 2.56707,10.8995 -1.49637,13.09204 -1.45605,0.78566 -8.64941,1.67984 -15.98523,1.98706 -13.014391,0.54506 -13.416064,0.4804 -16.5625,-2.66604 z M 81.0959,299.14105 c 4.21826,-4.59743 7.122994,-8.69675 6.454965,-9.10961 -0.762014,-0.47095 -0.537536,-3.29488 0.602431,-7.57855 2.915266,-10.95474 2.496322,-12.91103 -4.883767,-22.8049 -3.701759,-4.96264 -7.591266,-10.71049 -8.643352,-12.77299 -1.052083,-2.0625 -3.917421,-5.67664 -6.367416,-8.03143 l -4.454536,-4.28143 -4.232664,3.03143 C 53.075109,242.24632 28.75,265.85914 28.75,267.51261 c 0,3.81688 39.005392,39.25653 43.900669,39.88743 0.426617,0.055 4.226971,-3.66157 8.445231,-8.25899 z m 16.730679,-15.95734 c 0.446726,-2.6341 -2.645013,-9.43371 -4.289447,-9.43371 -0.817514,0 -1.551626,3.19304 -2.758912,11.99996 -0.326535,2.38201 -0.03709,2.50314 3.127289,1.30871 1.936807,-0.73106 3.680051,-2.45381 3.92107,-3.87496 z M 64.186671,183.08496 C 63.799392,182.07574 62.980209,181.25 62.366264,181.25 c -1.28262,0 -1.508183,2.94141 -0.316914,4.13269 1.333446,1.33344 2.889009,-0.33885 2.137321,-2.29773 z m 1.997959,-4.02246 c -0.397985,-3.9125 0.04058,-5.47536 1.31537,-4.6875 2.209289,1.36541 1.33159,-1.24954 -1.12556,-3.35341 -2.254102,-1.93003 -2.406224,-1.83239 -2.975336,1.9097 -0.551282,3.62483 0.773842,8.31871 2.348448,8.31871 0.362777,0 0.559462,-0.98438 0.437078,-2.1875 z"
       id="path3430"
       inkscape:connector-curvature="0" />
    <path
       style="fill:#fbd1d0"
       d="m 86.761296,656.28459 c -1.437537,-0.58133 -3.305281,-2.72657 -4.150542,-4.7672 -0.903088,-2.18025 -2.40235,-3.64473 -3.635692,-3.55133 -1.366509,0.1035 -2.221167,-0.93145 -2.4494,-2.96606 -0.822338,-7.33081 -1.514611,-8.58256 -4.966212,-8.97976 -2.128828,-0.24499 -3.906336,-1.47095 -4.675749,-3.2249 -0.682714,-1.55632 -1.88979,-2.5808 -2.68239,-2.27665 -7.50251,2.87897 -11.731407,3.51245 -13.522882,2.02565 -1.045497,-0.86768 -1.632173,-2.01243 -1.303725,-2.54387 0.328447,-0.53143 -0.599874,-1.27928 -2.062937,-1.66188 -2.355262,-0.61592 -2.573253,-1.31264 -1.902171,-6.07962 1.336228,-9.49175 6.899756,-56.03955 8.935411,-74.75897 1.084058,-9.96875 2.743669,-21.21875 3.688027,-25 0.944356,-3.78125 3.234967,-13.0625 5.090246,-20.625 1.85528,-7.5625 4.488035,-17.82745 5.850567,-22.81099 3.145868,-11.5062 3.123353,-26.50431 -0.06076,-40.47652 -1.311358,-5.75437 -2.754077,-14.68124 -3.206044,-19.83749 -0.451966,-5.15625 -1.672753,-12.0103 -2.71286,-15.23123 -1.040107,-3.22091 -1.769329,-6.59591 -1.620493,-7.5 C 61.522524,395.1147 61.335025,393.53125 60.957025,392.5 54.479659,374.82863 53.542871,363.70217 57.468771,351.06918 59.946294,343.09684 67.756492,330 70.033209,330 c 2.758406,0 0.930208,-2.58619 -2.98445,-4.22184 C 62.193796,323.74963 40.931825,310.11541 32.105935,303.37111 22.023081,295.66631 6.4661486,281.07128 2.9905122,276.05594 0.15126713,271.9589 -0.1771788,270.5386 0.56701172,265.57599 1.6599531,258.28773 11.876568,242.93565 24.242377,230 c 4.929108,-5.15625 11.155953,-13.18395 13.837433,-17.83934 2.681481,-4.65537 8.147992,-11.58584 12.147805,-15.40101 6.84847,-6.53233 7.271451,-7.27762 7.256364,-12.78566 -0.01302,-4.75427 2.337847,-18.40522 4.507606,-26.17462 0.242012,-0.86658 0.503245,-1.99158 0.580515,-2.5 0.07728,-0.5084 0.621826,-1.50435 1.210122,-2.2132 0.588298,-0.70885 1.370074,-2.67759 1.737282,-4.375 0.367207,-1.6974 1.768967,-6.8751 3.115022,-11.50601 1.346056,-4.63091 2.718533,-10.81841 3.04995,-13.75 0.331418,-2.93159 1.172811,-6.80798 1.869765,-8.61419 0.696953,-1.80622 1.267188,-6.48143 1.267188,-10.38934 0,-3.90792 0.671553,-7.91448 1.492341,-8.903469 C 77.476313,94.147384 77.461514,93.75 76.246806,93.75 c -3.34707,0 0.04719,-7.663042 6.055631,-13.671485 8.512778,-8.512778 15.155404,-11.709236 22.315333,-10.738228 3.09554,0.419808 6.96113,1.636615 8.59019,2.704018 1.62906,1.067402 3.65604,1.70936 4.5044,1.426574 1.91986,-0.639952 4.93275,1.660478 12.64409,9.654121 8.95516,9.282994 9.93047,11.707311 9.22379,22.92751 -1.17024,18.58012 -3.90107,30.87139 -8.58379,38.63499 -1.80734,2.99644 -2.01358,4.06752 -0.7859,4.08164 1.29824,0.0149 1.27126,0.26796 -0.12263,1.15003 -2.43531,1.54117 -2.72381,4.66198 -0.59433,6.42928 2.2799,1.89215 2.21891,3.5686 -0.22819,6.27262 -1.09151,1.2061 -1.79464,3.1101 -1.5625,4.23112 0.33141,1.60046 1.28559,1.15064 4.44286,-2.0945 2.21145,-2.27298 5.89476,-6.66394 8.18516,-9.75769 2.29039,-3.09375 8.10428,-8.22988 12.91975,-11.41361 8.29793,-5.48615 9.24604,-6.62918 18.14482,-21.87501 5.16416,-8.84751 10.36067,-18.69638 11.54781,-21.886376 3.26181,-8.765031 8.34129,-15.69699 20.93374,-28.568265 6.2913,-6.430599 14.60423,-15.67219 18.47321,-20.536869 9.04652,-11.374739 25.20116,-26.941721 30.09349,-28.998786 2.09346,-0.88022 3.80626,-1.277428 3.80626,-0.882685 0,0.394742 0.75947,0.0874 1.68774,-0.682983 0.92825,-0.770382 2.68694,-5.643655 3.90817,-10.8294951 1.32778,-5.6381958 2.78503,-9.24278538 3.62478,-8.966105 1.82463,0.6011832 2.51722,13.9420981 0.95626,18.4198931 -1.13251,3.248733 -0.77869,3.780649 5.71509,8.591713 3.80727,2.820718 7.4141,5.128578 8.01515,5.128578 0.60105,0 1.09281,0.823959 1.09281,1.83102 0,2.543611 -3.98593,4.41898 -9.39214,4.41898 -4.41247,0 -4.53046,0.118538 -3.73286,3.75 0.7091,3.228485 0.46215,3.75 -1.77567,3.75 -1.42964,0 -2.59933,-0.631375 -2.59933,-1.403056 0,-0.952248 -0.61946,-0.888944 -1.92798,0.197023 -1.34267,1.11432 -2.32518,1.202874 -3.23636,0.291693 -1.86839,-1.868379 -14.90186,1.354259 -16.98192,4.198927 -0.9031,1.235065 -4.82484,7.891912 -8.71497,14.792993 -16.90942,29.997326 -26.07376,45.44212 -30.43178,51.28712 -2.56722,3.44317 -9.07857,14.87797 -14.46965,25.41067 -5.65115,11.04079 -13.00562,23.21553 -17.36718,28.75 -4.16085,5.2798 -9.10532,12.50483 -10.98772,16.05563 l -3.42254,6.456 3.45755,2.71724 c 1.90165,1.49446 6.74019,5.847 10.75229,9.6723 l 7.29473,6.95507 -0.0608,7.91658 c -0.0479,6.23121 -0.89609,9.64861 -3.98456,16.05233 -3.19423,6.62304 -4.12182,10.51928 -4.98885,20.95512 -1.75014,21.06537 -3.7038,38.94753 -4.47323,40.94436 -0.39739,1.03125 -0.98582,6.64832 -1.30764,12.48238 -0.32182,5.83406 -1.10524,13.14656 -1.74093,16.25 -0.63569,3.10344 -1.74785,8.73637 -2.47147,12.51762 -0.72363,3.78125 -2.18225,9.56661 -3.24139,12.85636 -2.18081,6.77377 -1.89565,7.51427 7.0832,18.39364 8.35615,10.12485 16.94602,21.71697 22.69343,30.625 9.88377,15.31909 30.27335,52.19376 32.48883,58.75626 2.04813,6.06676 2.03305,6.79822 -0.36153,17.53728 -2.92209,13.10473 -2.76497,29.49746 0.4249,44.33146 1.10878,5.15625 2.8938,15.28125 3.96668,22.5 5.07132,34.12125 8.57784,56.43184 10.216,65 2.3979,12.54196 2.30233,13.61817 -1.33216,15 -3.46119,1.31594 -3.6851,2.11407 -1.90594,6.79363 0.68619,1.80482 2.20379,3.20637 3.47187,3.20637 3.9269,0 7.80907,3.64499 7.80907,7.33196 0,7.39508 -6.12751,10.16804 -22.46864,10.16804 -12.97421,0 -14.29195,-0.96426 -19.6853,-14.4049 -3.32903,-8.29618 -3.71115,-8.73596 -7.8601,-9.04634 -6.30327,-0.47155 -7.93766,1.16003 -8.69455,8.67953 -0.50182,4.98552 -1.20667,6.7237 -2.85391,7.03785 -1.88552,0.35958 -2.1875,-0.61238 -2.1875,-7.04075 0,-8.07024 -0.75923,-8.97539 -7.52846,-8.97539 -1.9657,0 -3.89944,-0.52657 -4.29719,-1.17016 -0.39776,-0.64359 0.40269,-12.59671 1.77877,-26.5625 1.37609,-13.96579 3.36673,-36.64234 4.42364,-50.39234 1.05691,-13.75 2.44866,-28.09375 3.09279,-31.875 0.64411,-3.78125 1.54965,-11.09375 2.0123,-16.25 0.46264,-5.15625 1.16224,-9.92519 1.55466,-10.59765 1.87266,-3.20901 -0.36601,-13.73185 -3.61192,-16.97776 -1.27648,-1.27648 -3.53347,-4.73483 -5.01553,-7.68523 -2.41512,-4.80785 -46.87078,-50.82047 -47.90521,-49.58298 -0.35173,0.42077 -2.47616,16.1042 -3.95786,29.21862 -1.22891,10.87695 -6.06745,29.37243 -10.79128,41.25 -10.274503,25.83419 -10.22149,22.75756 -0.99075,57.5 2.19195,8.25 4.51466,17.25 5.16157,20 0.64692,2.75 4.8749,18.14518 9.39551,34.21151 9.00256,31.99527 8.99792,30.71363 0.11646,32.19903 -4.19173,0.70106 -4.6875,1.17766 -4.6875,4.50627 0,2.1467 1.32269,5.29423 3.1248,7.43592 3.01532,3.58351 3.3078,8.44198 0.68414,11.36445 -2.41544,2.69052 -26.706505,4.3523 -32.047644,2.19241 z M 79.527411,301.5625 c 2.655711,-3.26563 5.957846,-6.91045 7.338078,-8.0996 1.850946,-1.59471 2.11064,-2.42726 0.989581,-3.17246 -1.181291,-0.78525 -1.111666,-2.36692 0.3125,-7.09907 2.697875,-8.96436 2.355832,-14.86942 -1.10246,-19.03296 C 85.45092,262.21504 81.701675,256.96875 78.733454,252.5 72.908627,243.73054 65.215325,235 63.312555,235 c -1.8328,0 -10.883235,7.77029 -23.4329,20.11841 -9.516856,9.36403 -11.265641,11.67261 -10.352905,13.66696 3.277365,7.16115 38.776621,38.71463 43.555915,38.71463 0.888899,0 3.789035,-2.67188 6.444746,-5.9375 z m 18.71288,-18.45182 C 98.93286,280.35125 95.675444,273.88981 93.54108,273.78927 92.720349,273.75063 90,284.73735 90,288.09073 c 0,2.90852 7.379771,-1.55147 8.240291,-4.98005 z M 66.608802,176.37606 c -0.498997,-2.06862 -0.279087,-2.72434 0.708894,-2.11374 2.369398,1.46438 1.61183,-1.05301 -0.98636,-3.27765 -2.302394,-1.97137 -2.457097,-1.89593 -3.21815,1.56912 -0.439717,2.00202 -0.416055,4.84811 0.05259,6.32466 0.574714,1.81076 0.401592,2.40621 -0.53185,1.82931 -1.539115,-0.95122 -1.834655,1.66317 -0.562708,4.97781 1.246223,3.2476 5.474209,-5.42671 4.537593,-9.30951 z"
       id="path3428"
       inkscape:connector-curvature="0" />
    <path
       style="fill:#fac0be"
       d="m 87.524635,655.89444 c -1.705201,-0.86279 -3.793436,-2.95886 -4.640521,-4.65795 -0.847087,-1.69909 -2.545672,-3.09425 -3.774635,-3.10037 -1.716923,-0.009 -2.379243,-1.30466 -2.859479,-5.59578 -0.562268,-5.02411 -1.032761,-5.70095 -4.6875,-6.74333 -2.707246,-0.77212 -4.0625,-1.93233 -4.0625,-3.47783 0,-2.82464 -2.003601,-2.9213 -8.0641,-0.38907 C 54.410095,634.03003 50,633.38069 50,630.54076 50,629.55585 49.189447,628.75 48.198771,628.75 c -0.990676,0 -2.14676,-0.55909 -2.569076,-1.2424 -0.422316,-0.68332 0.348111,-9.26145 1.712062,-19.0625 1.36395,-9.80106 3.397557,-26.53885 4.519125,-37.1951 3.28889,-31.24843 5.615433,-48.528 7.02771,-52.19584 C 60.720793,514.29574 66.25,492.38206 66.25,489.879 c 0,-1.12932 1.165904,-5.64222 2.590897,-10.02866 3.257717,-10.02795 3.882369,-24.31163 1.524072,-34.85034 -1.622709,-7.25154 -5.679345,-32.22717 -7.41058,-45.625 -0.355349,-2.75 -1.118505,-6.125 -1.695905,-7.5 -0.577399,-1.375 -1.341045,-3.625 -1.696993,-5 -0.355947,-1.375 -1.503207,-4.75 -2.549467,-7.5 -5.09795,-13.3995 0.201645,-35.40396 11.320697,-47.0047 l 4.317659,-4.50471 -4.13769,-1.7076 C 57.39398,321.56935 33.026089,304.67607 17.513873,290.80256 5.0886074,279.6899 -0.00472389,273.29831 0.01221115,268.83982 0.04180095,261.04972 10.743971,244.32025 25.658453,228.75 c 4.280542,-4.46875 10.084785,-12.1307 12.898317,-17.02656 2.845164,-4.95089 8.184001,-11.70598 12.029372,-15.22043 6.551525,-5.98772 6.914317,-6.63487 6.922615,-12.34845 0.0095,-6.52341 3.384589,-21.80071 7.30636,-33.07192 1.347699,-3.8733 3.624729,-12.02955 5.060068,-18.125 1.435337,-6.09545 3.175605,-13.48134 3.86726,-16.41308 C 74.4341,113.61282 75,107.88039 75,103.80583 c 0,-4.074557 0.589814,-7.772813 1.310698,-8.218344 0.888296,-0.548996 0.902622,-1.301756 0.04445,-2.335782 -0.696432,-0.839151 -0.864371,-2.900943 -0.373197,-4.581759 0.863504,-2.954943 10.152667,-12.298284 16.483676,-16.579814 4.141371,-2.800723 17.801133,-2.906012 20.084433,-0.15481 0.88339,1.064426 2.78039,1.767551 4.21555,1.5625 1.43517,-0.205051 3.98064,0.752179 5.65661,2.127179 4.88993,4.011797 14.04664,14.096651 15.5908,17.171127 1.94922,3.880957 2.51217,18.886893 0.82669,22.036243 -0.75662,1.41378 -1.58496,5.58329 -1.84072,9.26559 -0.25578,3.68229 -1.98235,10.31351 -3.83684,14.73605 -1.8545,4.42255 -3.99983,9.55969 -4.76739,11.41586 -1.15847,2.80149 -1.00648,3.80483 0.89458,5.90548 2.13836,2.36286 2.15496,2.73692 0.25041,5.64364 -2.17701,3.32255 -2.70539,6.95101 -1.0122,6.95101 1.17131,0 7.44942,-7.3079 11.72025,-13.64268 1.58246,-2.34722 7.09595,-7.14528 12.2522,-10.66236 8.73855,-5.96055 9.98759,-7.41046 18.3985,-21.35731 4.96292,-8.22946 10.2091,-18.0564 11.65818,-21.83765 4.03485,-10.528646 6.89761,-14.545878 20.49907,-28.765659 C 216.42108,58.511422 219.3851,55.164837 226.29117,46.25 c 7.3417,-9.477175 21.94013,-22.617825 27.05338,-24.351871 5.5193,-1.871747 7.30406,-4.701515 9.30771,-14.7575108 0.84826,-4.2572876 2.01373,-7.04121058 2.83209,-6.76497323 1.63091,0.55050844 1.83009,14.78233003 0.27902,19.93685503 -0.73877,2.455089 -0.59241,3.4375 0.51212,3.4375 0.85059,0 3.62798,1.828125 6.17201,4.0625 2.54403,2.234375 5.70595,4.707366 7.0265,5.495536 3.51639,2.098759 0.77379,4.330235 -6.30238,5.12782 -5.62838,0.634402 -5.77306,0.75668 -5.00938,4.233706 0.59642,2.71548 0.32726,3.580438 -1.11415,3.580438 -1.0453,0 -2.21367,-0.506642 -2.59638,-1.125873 -0.71704,-1.160195 -4.45131,-1.027164 -14.82205,0.528022 -7.17882,1.076532 -8.45,2.570954 -19.64734,23.097851 -11.73806,21.518175 -24.25451,42.52673 -28.53136,47.88921 -2.08983,2.62031 -8.17429,13.30781 -13.52102,23.75 -5.34673,10.44219 -13.14784,23.48579 -17.3358,28.98579 -4.18796,5.5 -9.22791,12.97126 -11.1999,16.6028 l -3.58543,6.6028 3.03309,2.08359 c 1.66821,1.14597 6.54872,5.43575 10.8456,9.53283 l 7.8125,7.44924 0,8.07021 c 0,6.09399 -0.73814,9.48907 -3.01429,13.86437 -4.22131,8.11431 -5.73571,13.3892 -5.73571,19.97831 0,5.61687 -1.12699,16.33521 -3.76586,35.81585 -0.74505,5.5 -1.88715,15.89382 -2.53801,23.09739 -1.17723,13.02923 -4.9109,32.73445 -7.48545,39.50602 -1.91764,5.0438 -0.75937,8.17833 6.0628,16.40714 14.31507,17.2667 24.75787,32.7957 40.04227,59.54503 10.85851,19.00356 16.56656,30.29314 17.0641,33.75 0.44074,3.06228 -0.31739,11.34828 -1.847,20.18676 -2.54426,14.7014 -2.54039,19.34246 0.0266,31.88266 1.46052,7.13498 5.24958,30.38922 8.75806,53.75 1.49717,9.96875 4.06321,25.98579 5.70231,35.59341 1.6391,9.60764 2.98018,17.81423 2.98018,18.23687 0,0.42263 -1.40625,1.40916 -3.125,2.19228 -2.30322,1.04942 -3.125,2.39154 -3.125,5.1037 0,3.15053 0.67427,3.89704 4.6875,5.1897 2.57812,0.83042 5.39062,2.06792 6.25,2.75 2.0123,1.59715 2.0123,7.35163 0,10.05644 -1.88708,2.5365 -12.19642,4.6276 -22.81454,4.6276 -9.81916,0 -13.37436,-2.52622 -16.29439,-11.57835 C 196.09,629.63205 194.35935,627.5 189.44841,627.5 c -7.06651,0 -8.19841,0.95354 -8.19841,6.9065 0,6.58082 -0.96354,9.3435 -3.25874,9.3435 -1.29426,0 -1.74126,-1.91923 -1.74126,-7.47619 0,-8.05344 -0.0157,-8.0697 -8.75,-9.04947 -2.27289,-0.25496 -3.0609,-1.03207 -2.88993,-2.84994 0.12929,-1.37468 0.59085,-8.1244 1.02571,-14.9994 0.43484,-6.875 1.56541,-19.25 2.51237,-27.5 0.94696,-8.25 2.06342,-21.1875 2.48102,-28.75 0.76986,-13.94135 1.97334,-25.66886 5.0669,-49.375 0.94203,-7.21875 1.9255,-14.8125 2.18552,-16.875 0.6119,-4.85389 -1.24969,-10.44762 -4.78396,-14.375 -1.54673,-1.71875 -3.80065,-5.09375 -5.00873,-7.5 -1.82675,-3.63854 -44.20553,-48.6259 -46.83936,-49.72252 -0.45907,-0.19114 -1.82284,7.68386 -3.0306,17.5 -2.86044,23.2484 -7.37671,42.19473 -13.95535,58.54447 -4.911171,12.20561 -7.656575,21.63871 -6.998271,24.04578 2.399647,8.77423 7.731451,29.21055 11.481421,44.00727 2.61352,10.3125 5.6302,21.84375 6.70372,25.625 10.26098,36.14223 11.67044,41.9747 10.49693,43.4375 -0.68943,0.85938 -3.37309,1.5625 -5.96369,1.5625 -4.45575,0 -4.73788,0.2372 -5.22283,4.39114 -0.39761,3.40581 0.14582,5.00974 2.42179,7.14789 2.30983,2.16998 2.85544,3.82867 2.56338,7.79291 l -0.37104,5.03617 -8.125,1.5076 c -10.60467,1.9677 -19.859017,1.975 -23.725365,0.0187 z M 83.520343,297.49932 C 88.561839,291.98706 93.69034,287.5 94.949108,287.5 c 4.46008,0 5.076652,-6.79099 1.078095,-11.87433 -2.498978,-3.17693 -2.794233,-3.26786 -3.591802,-1.10607 -0.477951,1.29546 -1.274226,5.30852 -1.769498,8.9179 -0.495274,3.60937 -1.474057,6.5625 -2.175074,6.5625 -0.770999,0 -0.954178,-1.60508 -0.463631,-4.0625 0.44602,-2.23438 1.134303,-7.21853 1.529518,-11.07588 0.71265,-6.95558 0.66336,-7.08657 -5.981572,-15.89542 -3.685079,-4.88513 -8.020243,-11.01035 -9.633698,-13.61163 -1.613455,-2.60126 -4.604917,-6.06973 -6.647695,-7.70769 -3.381463,-2.71138 -4.013117,-2.82335 -7.05202,-1.25 -1.835833,0.95046 -9.791256,7.98273 -17.678718,15.62726 -12.61019,12.22179 -14.195854,14.21691 -13.139427,16.53241 2.53495,5.55616 20.657772,23.6617 31.160669,31.13095 6.042058,4.29688 11.616726,7.8122 12.388153,7.81183 0.771426,-3.7e-4 5.517996,-4.50037 10.547935,-10 z M 66.687021,180.2872 c 2.655334,-6.87046 2.822289,-12.47349 0.309537,-10.38809 -1.346745,1.1177 -1.890855,1.08073 -2.345884,-0.15944 -0.325843,-0.88807 -0.952183,0.0729 -1.391866,2.13533 -0.439684,2.0625 -1.2674,5.83226 -1.83937,8.37725 -0.662084,2.94595 -0.563869,5.10332 0.270308,5.9375 1.653142,1.65314 2.43322,0.73175 4.997275,-5.90255 z"
       id="path3426"
       inkscape:connector-curvature="0" />
    <path
       style="fill:#fab8b6"
       d="m 87.524635,655.89444 c -1.705201,-0.86279 -3.797553,-2.96388 -4.64967,-4.66908 -0.852116,-1.7052 -2.550702,-3.10036 -3.774634,-3.10036 -1.708453,0 -2.3705,-1.29715 -2.850331,-5.58466 -0.562268,-5.02411 -1.032761,-5.70095 -4.6875,-6.74333 -2.707246,-0.77212 -4.0625,-1.93233 -4.0625,-3.47783 0,-2.78438 -1.46147,-2.86235 -8.392079,-0.44779 C 53.527594,633.81552 50,633.31361 50,630.5755 c 0,-0.91136 -1.142345,-2.0196 -2.538544,-2.46274 -2.052989,-0.65159 -2.415164,-1.56429 -1.893494,-4.77172 2.086884,-12.83102 7.447679,-58.59382 10.128897,-86.46604 0.396811,-4.125 1.551827,-10.59375 2.566701,-14.375 1.014874,-3.78125 3.282465,-12.78125 5.039091,-20 1.756625,-7.21875 4.341835,-17.31419 5.744911,-22.4343 3.393228,-12.38259 3.618785,-24.4067 0.725129,-38.65548 -2.116741,-10.42315 -5.076672,-29.01127 -6.892642,-43.28522 -0.349863,-2.75 -1.140999,-5.53438 -1.758082,-6.1875 -0.617082,-0.65312 -1.125432,-2.34063 -1.129668,-3.75 -0.0043,-1.40937 -0.913014,-4.25 -2.019507,-6.3125 -6.59823,-12.29908 -1.306169,-37.3374 10.491773,-49.63973 l 4.449501,-4.63972 -3.413407,-1.29778 C 67.623285,325.584 65.799409,325 65.4476,325 63.035549,325 27.362149,299.61906 18.587472,291.65991 -0.21880685,274.60152 -2.1695354,270.89012 2.3274145,260.72402 5.7957919,252.88319 18.312467,235.81757 26.236989,228.125 c 3.541146,-3.4375 8.49437,-9.90625 11.007163,-14.375 2.512793,-4.46875 8.098319,-11.60349 12.412282,-15.85496 C 57.048142,190.61037 57.5,189.83026 57.5,184.3533 c 0,-6.0761 3.156249,-19.80609 8.01425,-34.86276 1.573245,-4.87605 3.825066,-13.36554 5.004047,-18.86554 1.178982,-5.5 2.669674,-12.03401 3.312653,-14.52003 C 74.473928,113.61896 75,108.16778 75,103.99125 c 0,-4.17654 0.589814,-7.958233 1.310698,-8.403764 0.888296,-0.548996 0.902622,-1.301756 0.04445,-2.335782 -0.696432,-0.839152 -0.864371,-2.900943 -0.373197,-4.581759 0.908544,-3.109073 10.626296,-12.686829 16.786565,-16.544733 4.810221,-3.01243 15.966164,-2.855312 19.953354,0.281018 1.87439,1.474395 3.69393,2.013837 4.69851,1.392976 2.45793,-1.519089 11.56766,6.654775 18.43104,16.537563 4.01936,5.787607 5.16947,19.414551 2.23197,26.444991 -0.99471,2.38068 -1.49535,5.14473 -1.11252,6.14235 0.98092,2.55625 -1.48851,11.23908 -6.03473,21.2187 -3.73405,8.1968 -3.80272,8.64913 -1.82218,12.00189 1.80226,3.051 1.83481,3.77906 0.26181,5.85719 -1.95071,2.57715 -2.48906,6.74811 -0.87099,6.74811 1.48596,0 8.04623,-7.38305 11.78043,-13.25794 1.96661,-3.094 6.74822,-7.42927 12.03752,-10.91389 4.82621,-3.17952 9.67711,-7.0572 10.77979,-8.61706 5.7651,-8.1554 18.14789,-30.1923 20.50417,-36.490028 3.44735,-9.213887 6.56322,-13.399083 21.95038,-29.483531 6.91236,-7.225596 14.51916,-15.663096 16.90401,-18.75 7.00754,-9.070409 23.99858,-26.15904 27.98895,-28.1497 2.02623,-1.010819 4.70646,-1.837851 5.95603,-1.837851 1.74428,0 2.88523,-2.104927 4.91221,-9.0625 1.45213,-4.984375 2.8706,-9.8012774 3.15215,-10.7042276 0.28156,-0.90295014 1.07839,-1.29162808 1.77075,-0.86372873 1.72065,1.06342103 1.58987,13.05779633 -0.19832,18.18737733 -1.16221,3.333914 -1.12638,4.290235 0.17701,4.724699 0.89879,0.299595 3.66388,2.346243 6.14465,4.548106 2.48077,2.201863 5.49486,4.360783 6.69799,4.797599 5.19779,1.887152 -0.2514,5.872675 -8.02939,5.872675 -3.40806,0 -3.72447,0.31738 -3.03904,3.048394 0.82782,3.298269 -1.18831,5.50737 -3.19493,3.500743 -1.99196,-1.991961 -17.50767,-0.515397 -20.95134,1.993851 -1.66496,1.213178 -7.76844,10.615432 -13.56327,20.893896 -17.04423,30.23179 -24.09062,42.049176 -29.03141,48.688116 -2.55822,3.4375 -8.9891,14.72455 -14.29079,25.08232 -5.305,10.3642 -12.83158,22.85818 -16.73841,27.78542 -3.90441,4.92418 -8.75163,12.12945 -10.77162,16.01169 l -3.67269,7.05862 3.67269,2.62095 c 2.01999,1.44151 6.90707,5.67545 10.8602,9.40875 l 7.1875,6.7878 0,7.75876 c 0,6.26008 -0.73901,9.14364 -3.82585,14.92825 -3.21512,6.025 -4.0034,9.2956 -4.93807,20.48845 -0.61173,7.32545 -1.44893,15.00649 -1.86044,17.06899 -0.78479,3.93327 -2.26808,17.33384 -4.35838,39.375 -1.38775,14.63311 -4.18146,30.03185 -7.1076,39.17665 -1.79216,5.60084 -1.7703,6.42 0.29343,10.99651 1.22641,2.71969 2.83686,5.3402 3.57879,5.82336 1.59202,1.03678 13.2203,15.48139 20.32966,25.25348 8.1019,11.13635 36.46589,61.95758 38.01672,68.11655 1.17034,4.64782 1.01789,7.73413 -0.85017,17.21092 -2.8906,14.66419 -2.75924,25.52254 0.51777,42.79753 1.43458,7.5625 4.04247,23.3125 5.79532,35 4.46306,29.75865 6.89088,44.80855 8.9144,55.2598 2.25703,11.65742 2.32973,11.1666 -1.87063,12.63085 -3.28687,1.14581 -3.53804,1.6367 -2.76682,5.40755 0.70977,3.4704 1.62561,4.36545 5.61103,5.48364 5.60434,1.57242 7.49879,4.32145 6.4062,9.29598 -1.01058,4.60119 -5.44432,6.29117 -18.76036,7.15074 -13.0734,0.84391 -16.1664,-0.42637 -19.50512,-8.01069 -6.21462,-14.11727 -6.6147,-14.703 -10.33342,-15.12797 -1.9737,-0.22556 -4.92682,-0.0742 -6.5625,0.33631 -2.56815,0.64457 -2.97396,1.49678 -2.97396,6.24536 0,6.68703 -0.95361,9.45343 -3.25874,9.45343 -1.29136,0 -1.74126,-1.90325 -1.74126,-7.36626 0,-7.97054 -0.77389,-8.88374 -7.52846,-8.88374 -1.9657,0 -3.81675,-0.42188 -4.11347,-0.9375 -0.2967,-0.51563 -0.0729,-4.875 0.4975,-9.6875 0.57033,-4.8125 1.58334,-15.5 2.25115,-23.75 0.66782,-8.25 2.09925,-25.96875 3.18099,-39.375 1.08174,-13.40625 2.82686,-30.5625 3.87806,-38.125 4.4132,-31.74942 4.37763,-37.07653 -0.28156,-42.16061 -1.43115,-1.56167 -3.75019,-5.08939 -5.15341,-7.83939 -2.34638,-4.59833 -47.33019,-51.44228 -48.38583,-50.38664 -0.25519,0.25519 -1.36736,8.04034 -2.47148,17.30032 -2.39414,20.07898 -5.75659,35.5272 -10.87457,49.96132 -11.467416,32.34134 -11.002303,30.45409 -9.13627,37.0713 3.83627,13.60399 7.04238,25.70779 11.20558,42.3037 2.4145,9.625 7.42239,28.3462 11.12866,41.60266 6.31418,22.5844 6.59627,24.17888 4.47806,25.3125 -1.24333,0.66541 -3.94944,1.20984 -6.01358,1.20984 -3.31968,0 -3.79862,0.46902 -4.14838,4.0625 -0.2701,2.77523 0.49697,5.18212 2.42081,7.59591 3.0839,3.86928 3.71246,9.79693 1.2537,11.82304 -4.18328,3.4472 -25.56957,5.11656 -30.912864,2.41299 z M 83.75,297.5 c 5.006469,-5.5 10.088139,-10 11.292599,-10 4.346302,0 4.944918,-6.8396 1.033793,-11.8118 -3.341217,-4.24766 -4.43913,-2.84544 -5.578151,7.1243 -0.451636,3.95312 -1.3846,7.1875 -2.073252,7.1875 -0.778809,0 -0.90068,-1.77185 -0.322414,-4.6875 3.108369,-15.67256 2.98989,-16.59566 -3.168626,-24.6875 -3.139446,-4.125 -7.485069,-10.33434 -9.656938,-13.79854 -3.631134,-5.79176 -10.035765,-11.87539 -12.413895,-11.79168 -1.858248,0.0654 -9.981734,6.84831 -22.809317,19.04521 C 27.385342,266.1256 27.252786,266.31153 29.206926,269.29391 36.269092,280.07215 67.44631,307.5 72.635746,307.5 c 1.106371,0 6.107785,-4.5 11.114254,-10 z M 65.597202,183.4375 c 1.11667,-2.23438 2.360465,-6.46144 2.76399,-9.39348 0.698534,-5.07558 0.590685,-5.30916 -2.251255,-4.87577 -2.470778,0.3768 -3.122718,1.40272 -3.784827,5.95597 -0.439939,3.02543 -0.92846,6.34453 -1.085603,7.37578 -0.936493,6.14575 1.493509,6.66854 4.357695,0.9375 z"
       id="path3424"
       inkscape:connector-curvature="0" />
    <path
       style="fill:#faa7a5"
       d="m 87.70397,656.1709 c -1.606566,-0.64385 -3.558012,-2.8582 -4.336547,-4.92076 C 82.379285,648.63226 81.112832,647.5 79.172825,647.5 c -2.37588,0 -2.834846,-0.77076 -3.163453,-5.3125 -0.346363,-4.78718 -0.786096,-5.43076 -4.446872,-6.5085 -2.747696,-0.80891 -4.0625,-1.9686 -4.0625,-3.58321 0,-1.9673 -0.604686,-2.24474 -3.4375,-1.57717 -1.890625,0.44554 -5.828125,1.14677 -8.75,1.55829 C 50.827831,632.70854 50,632.48939 50,630.67054 c 0,-1.18503 -1.166773,-2.4597 -2.592826,-2.83263 -1.891319,-0.49458 -2.420785,-1.39297 -1.956949,-3.32047 0.803142,-3.33751 6.290736,-47.91275 8.942906,-72.64244 2.990473,-27.88414 2.319218,-24.35632 9.312858,-48.94405 1.399206,-4.91922 2.544011,-10.3825 2.544011,-12.1406 0,-1.75811 1.146989,-6.26218 2.548864,-10.00901 3.848237,-10.28534 4.01868,-23.44342 0.56064,-43.28134 -2.867024,-16.44741 -4.653119,-27.13662 -6.909409,-41.35061 -0.609009,-3.83659 -2.204267,-9.53477 -3.545019,-12.66261 -6.87484,-16.03835 -2.94641,-37.3555 9.403134,-51.02497 l 4.44993,-4.92555 -3.56657,-1.34584 C 64.239429,324.32173 49.148405,314.86589 34.824164,304.65625 20.995377,294.79975 1.8304509,275.87292 0.5622477,270.82 c -0.54103015,-2.15564 -0.0561698,-5.53449 1.306029,-9.10136 2.7064701,-7.08679 18.8724833,-28.97097 24.9413843,-33.76352 2.493463,-1.96907 7.134472,-8.08012 10.313355,-13.58012 3.204809,-5.54486 9.031418,-13.14104 13.078385,-17.05035 6.682064,-6.45479 7.301266,-7.5107 7.330175,-12.5 0.03156,-5.44759 3.120086,-18.56675 9.081268,-38.57465 1.741093,-5.84375 3.810773,-14 4.599287,-18.125 0.788514,-4.125 1.93823,-9.1875 2.554925,-11.25 0.616695,-2.0625 1.240426,-7.125 1.386071,-11.25 0.145645,-4.125 0.873898,-8.557867 1.61834,-9.850816 0.999905,-1.736638 0.961667,-2.4932 -0.146358,-2.895798 -1.053814,-0.3829 -1.155955,-1.449605 -0.343439,-3.586683 C 76.917719,87.618766 77.204466,86.25 76.918888,86.25 c -1.422012,0 12.992262,-12.449296 16.456537,-14.213156 5.690499,-2.897356 15.509085,-2.67254 19.094655,0.43721 1.56894,1.36073 3.35933,2.160887 3.97864,1.778127 1.41984,-0.877503 12.30128,5.414033 12.30128,7.112469 0,0.692595 1.9709,3.288635 4.37977,5.768978 2.40888,2.480342 4.94543,6.610347 5.63677,9.177787 1.37491,5.106035 0.89785,17.462105 -0.77738,20.134175 -0.57907,0.92368 -1.40821,5.50255 -1.84251,10.17528 -0.55188,5.9376 -1.9726,10.78955 -4.71815,16.11308 -4.2867,8.31175 -4.72639,11.02234 -2.39384,14.75736 1.25789,2.01419 1.14159,3.1228 -0.64485,6.147 -1.60201,2.712 -1.79053,3.93002 -0.7115,4.59689 1.51165,0.93425 7.75594,-5.33364 13.57169,-13.62297 1.71875,-2.44978 6.25565,-6.46006 10.08201,-8.91172 3.82637,-2.45166 8.37339,-6.00285 10.10453,-7.89153 4.79331,-5.22958 19.80665,-31.14779 22.387,-38.647732 2.95639,-8.592892 6.27987,-12.977394 23.09976,-30.47438 7.63368,-7.940973 16.17353,-17.503473 18.97745,-21.25 C 235.26132,34.929504 250.97351,21.25 255.97881,21.25 c 2.72013,0 4.32451,-3.166076 6.65103,-13.125 0.80303,-3.4375 1.91495,-6.7532375 2.47091,-7.36830564 1.97262,-2.18230346 2.64052,5.58154464 1.1945,13.88521764 -1.1427,6.561899 -1.13259,8.537309 0.0457,8.930085 0.83216,0.277388 3.54275,2.305865 6.02352,4.507729 2.48077,2.201863 5.49487,4.360783 6.69799,4.797599 5.06942,1.84055 -0.20741,5.872675 -7.68555,5.872675 -4.37396,0 -5.35672,0.985046 -3.8296,3.838494 1.43658,2.684268 -0.60105,4.534331 -2.91461,2.646331 -2.44062,-1.991673 -17.33093,-0.48445 -20.88275,2.113786 -1.71875,1.257303 -6.12586,7.571342 -9.7936,14.031198 -22.94749,40.416711 -28.41461,49.655131 -31.4484,53.141891 -1.86476,2.14319 -6.91823,10.86194 -11.22992,19.375 -10.08947,19.92077 -15.37922,28.75527 -22.61179,37.76434 -3.21711,4.00731 -6.60348,8.78856 -7.52525,10.625 -0.92178,1.83642 -2.68791,4.84232 -3.92475,6.67976 -2.2481,3.33974 -2.24751,3.34171 1.82995,6.20189 2.24332,1.57358 7.31314,5.92147 11.26626,9.66196 l 7.1875,6.8009 0,7.75876 c 0,6.29144 -0.73722,9.14029 -3.8982,15.06384 -3.25652,6.10259 -4.06667,9.3723 -4.92162,19.86346 -0.56288,6.90711 -1.58097,16.49589 -2.26243,21.30839 -1.74142,12.29805 -3.72294,29.70191 -4.55419,40 -0.83241,10.31264 -3.86,26.49339 -6.41163,34.26665 -2.24159,6.82872 -1.29374,11.57762 3.34471,16.7578 15.2345,17.01374 23.76434,29.3837 40.23625,58.35055 21.14029,37.17646 21.07491,36.9907 17.83212,50.67097 -2.67895,11.30167 -2.75756,29.93532 -0.17736,42.04309 1.1239,5.27399 2.65034,13.71149 3.39208,18.75 0.74173,5.03851 1.90396,12.81719 2.58271,17.28594 0.67876,4.46875 1.50804,10.375 1.84285,13.125 0.33481,2.75 2.06202,13.4375 3.83825,23.75 1.77624,10.3125 3.6575,21.28125 4.18059,24.375 1.08972,6.445 0.80237,7.24764 -3.12994,8.7427 -2.44846,0.93091 -2.74294,1.67536 -2.03395,5.14195 0.69051,3.37621 1.70167,4.34433 6.05216,5.79449 5.58709,1.86236 7.1747,4.42142 5.89823,9.50732 -1.02728,4.09302 -5.93473,5.844 -18.68563,6.6671 -13.0734,0.84391 -16.1664,-0.42637 -19.50512,-8.01068 -6.85514,-15.57233 -6.10059,-14.71788 -12.99731,-14.71788 l -6.24757,0 -0.33317,5 c -0.85538,12.83645 -4.27965,14.3912 -5.29183,2.40269 L 175.625,628.125 170,627.5 c -5.36304,-0.59589 -5.6111,-0.79965 -5.32643,-4.375 0.16422,-2.0625 1.13088,-12.46875 2.14816,-23.125 1.01727,-10.65625 3.00934,-33.4375 4.42683,-50.625 1.41748,-17.1875 3.15359,-34.15988 3.85802,-37.71639 0.70441,-3.55651 1.34641,-9.34861 1.42666,-12.87134 0.0803,-3.52272 0.57064,-6.66746 1.08977,-6.9883 0.51915,-0.32085 0.7542,-3.72665 0.52237,-7.56845 -0.32243,-5.34276 -1.15027,-7.76337 -3.52093,-10.2953 -1.70467,-1.82062 -4.24291,-5.56022 -5.64054,-8.31022 C 166.90514,461.53472 122.65482,415 120.84412,415 c -0.5942,0 -2.84973,15.15381 -4.00015,26.875 -1.39932,14.2573 -7.40544,36.95689 -13.33746,50.40776 -1.91809,4.34928 -4.308005,11.09928 -5.310921,15 -1.677811,6.52566 -1.629638,7.79125 0.603021,15.84224 1.33458,4.8125 5.50705,20.5625 9.27216,35 3.76511,14.4375 9.38932,35.25 12.49824,46.25 3.10892,11 5.65898,20.97366 5.66679,22.16369 0.0138,2.09417 -2.02543,2.9744 -8.6559,3.73637 -2.50068,0.28738 -3.04415,1.04522 -3.03977,4.23885 0.003,2.1389 1.2326,5.44913 2.7326,7.35608 3.00797,3.82401 3.59572,9.64753 1.16477,11.54081 -4.1785,3.25433 -24.86469,5.1121 -30.73353,2.7601 z M 83.231104,298.14461 c 4.734379,-5.14547 10.162921,-9.89746 12.063429,-10.55997 2.847685,-0.99272 3.448152,-1.93058 3.413881,-5.33212 -0.03621,-3.59397 -3.454128,-9.75252 -5.412525,-9.75252 -0.998229,0 -3.28084,8.84107 -3.288918,12.73872 -0.0039,1.85005 -0.657276,3.76564 -1.452093,4.25687 -1.047509,0.6474 -1.194335,-0.2781 -0.533638,-3.36373 0.501316,-2.34127 1.354434,-7.32576 1.895815,-11.07665 1.037837,-7.19051 0.947889,-7.3824 -9.70296,-20.69976 -0.558444,-0.69825 -2.496606,-3.79713 -4.307026,-6.88638 -1.810422,-3.08925 -5.266315,-7.53071 -7.679764,-9.86991 l -4.388089,-4.25311 -5.479334,4.26891 c -3.013633,2.3479 -11.221702,9.72895 -18.240152,16.40234 -11.915644,11.32981 -12.661298,12.32299 -11.258218,14.99556 4.708518,8.96874 38.13516,38.33557 43.76256,38.44742 1.099489,0.0219 5.872654,-4.17021 10.607032,-9.31567 z M 65,185.60804 c 0,-1.04058 0.650321,-3.14995 1.44516,-4.6875 3.701114,-7.15949 3.63669,-11.53068 -0.184672,-12.52998 -3.078275,-0.80499 -3.7474,1.14756 -5.230817,15.26385 -0.263852,2.51083 0.463413,3.84559 2.095329,3.84559 1.03125,0 1.875,-0.85139 1.875,-1.89196 z"
       id="path3422"
       inkscape:connector-curvature="0" />
    <path
       style="fill:#faa09e"
       d="m 87.203384,655.54335 c -1.881889,-1.0211 -3.770993,-3.24857 -4.19801,-4.94995 -0.555297,-2.21247 -1.627725,-3.0934 -3.765884,-3.0934 -1.64422,0 -2.922879,-0.42188 -2.841464,-0.9375 0.08141,-0.51563 0.08141,-3.02139 0,-5.56836 -0.13627,-4.26308 -0.49548,-4.69604 -4.523026,-5.45162 -3.506261,-0.65777 -4.375,-1.39632 -4.375,-3.71938 0,-2.70849 -0.266485,-2.81178 -4.0625,-1.5747 -2.234375,0.72816 -6.171875,1.59174 -8.75,1.91904 C 50.566898,632.69061 50,632.44436 50,630.1313 50,628.29983 49.2099,627.5 47.400681,627.5 c -2.170441,0 -2.484872,-0.56718 -1.905687,-3.4375 1.451962,-7.19564 3.235138,-20.48016 5.746701,-42.8125 6.730981,-59.85059 5.835006,-54.51356 13.882606,-82.69405 C 66.430935,493.98047 67.5,488.89849 67.5,487.26262 c 0,-1.63585 1.136669,-6.2083 2.52593,-10.161 3.128536,-8.90125 3.096154,-19.41406 -0.112363,-36.47662 -1.292802,-6.875 -3.201277,-18.125 -4.241055,-25 -3.14497,-20.7945 -4.349915,-26.59826 -6.826838,-32.88226 -3.744182,-9.49907 -4.270755,-16.14529 -2.040944,-25.76005 2.684904,-11.57708 5.74312,-18.14485 11.326852,-24.32538 l 4.663267,-5.16169 -4.509735,-1.88428 C 55.041772,320.07792 23.152549,296.7752 9.7609019,282.84537 -0.86894107,271.78834 -1.4952632,269.44411 3.4831015,259.34851 8.2832608,249.6143 21.086401,232.45935 26.990976,227.85027 c 2.448656,-1.9114 7.004636,-7.86151 10.1244,-13.22247 3.149139,-5.41144 9.230334,-13.23594 13.671095,-17.59021 7.698093,-7.54815 7.980704,-8.04388 7.517514,-13.18613 -0.480948,-5.33941 1.526057,-14.1319 9.153705,-40.10146 2.120254,-7.21875 4.430657,-16.5 5.134231,-20.625 2.057368,-12.0622 3.855323,-25.858479 4.077204,-31.285663 C 76.834186,87.80198 77.866235,85.783881 81.875,81.659614 90.191217,73.103785 95.758723,70 102.78977,70 c 4.28401,0 7.16319,0.764795 9.34749,2.482969 1.73612,1.365632 3.59443,2.212367 4.12956,1.881634 1.64795,-1.018489 12.48318,5.444431 12.48318,7.445877 0,0.665013 2.05219,3.31074 4.56041,5.879395 6.68083,6.841795 6.94526,9.944619 3.1265,36.685125 -1.53929,10.7787 -3.03479,15.74525 -6.36237,21.1294 -2.93513,4.74914 -3.25528,8.4395 -1.03988,11.98691 1.25789,2.01419 1.14159,3.1228 -0.64485,6.147 -1.60201,2.712 -1.79053,3.93002 -0.7115,4.59689 1.45321,0.89814 5.90405,-3.47579 14.62485,-14.37212 2.29799,-2.87127 7.73345,-7.46584 12.0788,-10.21018 6.72239,-4.24556 8.72819,-6.42797 13.44965,-14.6338 3.05196,-5.30426 7.61404,-13.00786 10.13795,-17.11913 2.5239,-4.11126 5.12441,-9.46366 5.77889,-11.89422 1.87537,-6.964609 7.4927,-14.691389 19.99651,-27.50575 6.37298,-6.53125 15.67446,-16.9375 20.66999,-23.125 14,-17.340554 23.25976,-25.295032 33.16019,-28.485855 1.12726,-0.363307 2.8957,-3.980024 4.19104,-8.571328 C 262.99867,7.9492675 264.43236,3.25 264.95215,1.875 c 1.82459,-4.826643 2.78484,4.9247421 1.29435,13.144275 -0.77196,4.257171 -1.22761,7.84213 -1.01254,7.966576 0.21508,0.12445 2.92229,2.216781 6.01604,4.649633 3.09375,2.432851 6.60937,4.78622 7.8125,5.22971 1.20312,0.443489 2.1875,1.360059 2.1875,2.03682 0,1.367551 -7.81388,3.830175 -12.1875,3.841015 -3.16312,0.0079 -3.34021,0.435286 -1.55913,3.763287 1.75163,3.272943 -0.90126,4.672172 -3.18778,1.681357 -1.09714,-1.435068 -2.13285,-1.838327 -2.72934,-1.062673 -0.52869,0.6875 -3.75463,1.372707 -7.16874,1.522685 -10.55377,0.463609 -12.19755,1.596774 -18.43864,12.711071 -24.00563,42.749844 -30.03755,52.955264 -34.37226,58.154664 -1.66834,2.00113 -5.59742,8.75113 -8.73131,15 -9.24976,18.44377 -16.58005,30.8629 -23.02038,39.0016 -3.32512,4.20202 -7.98822,11.0767 -10.36241,15.27708 l -4.31672,7.63706 4.59961,3.67546 c 2.52977,2.0215 7.42694,6.418 10.88256,9.76998 5.92378,5.74611 6.29956,6.4914 6.57348,13.03705 0.23638,5.64918 -0.42017,8.31839 -3.52428,14.32794 -3.02549,5.85735 -4.07262,9.97169 -5.06101,19.88541 -0.68544,6.875 -2.1022,19.53125 -3.14836,28.125 -1.04617,8.59375 -2.40324,21.53125 -3.01572,28.75 -1.10781,13.05661 -3.36763,25.44952 -7.10243,38.94981 -2.43853,8.81459 -1.6861,11.88864 4.72221,19.29286 13.27337,15.33619 25.47817,33.41802 40.65919,60.23794 9.10738,16.0898 16.89932,31.31074 17.31542,33.82429 0.44894,2.71193 -0.26885,9.3984 -1.76537,16.4451 -3.25658,15.33428 -3.19687,20.37013 0.4784,40.35077 1.67172,9.08833 4.5191,26.64923 6.3275,39.02423 1.80838,12.375 4.43886,28.96875 5.8455,36.875 1.40662,7.90625 2.83791,17.21054 3.18062,20.6762 0.56793,5.743 0.35535,6.42321 -2.39964,7.67848 -2.5539,1.16362 -2.94168,2.07174 -2.50006,5.85461 0.4635,3.97026 1.01119,4.56898 4.83571,5.28647 5.16595,0.96914 8.36218,5.18571 7.25992,9.57749 -1.06273,4.23423 -8.3551,6.46091 -21.32517,6.51155 -9.1749,0.0358 -10.64718,-0.2867 -13.49488,-2.95611 -1.75804,-1.64798 -3.84169,-5.02298 -4.63033,-7.5 -3.91347,-12.29183 -6.64646,-14.71463 -14.76656,-13.09061 -3.63191,0.72638 -3.8721,1.11876 -3.8721,6.32535 0,6.0187 -1.91295,10.89692 -3.81271,9.72281 -0.65302,-0.40358 -1.18729,-3.68184 -1.18729,-7.28501 0,-7.61957 -1.44098,-9.55123 -7.125,-9.55123 -5.05799,0 -4.98581,1.34756 -1.7238,-32.18866 1.32066,-13.57749 3.05937,-33.12384 3.86381,-43.43634 0.80444,-10.3125 2.4942,-26.8876 3.75504,-36.83358 1.26084,-9.94596 2.00495,-18.54872 1.65357,-19.11724 -0.35136,-0.56853 -0.0276,-1.77009 0.71929,-2.67015 0.79458,-0.9574 1.11205,-4.52849 0.76508,-8.60595 -0.44333,-5.20989 -1.3622,-7.73865 -3.63949,-10.01594 -1.67552,-1.67553 -4.28934,-5.51259 -5.80845,-8.52678 -1.68684,-3.34697 -11.48486,-14.17573 -25.16971,-27.81752 -12.32423,-12.28544 -22.58013,-22.12919 -22.7909,-21.875 -0.6873,0.82889 -3.07079,15.269 -3.8933,23.58716 -1.98722,20.09688 -6.79749,38.89153 -14.10054,55.09346 -5.605272,12.43538 -6.698376,19.14515 -4.464861,27.40654 1.022285,3.78125 4.603351,17.5625 7.957921,30.625 3.35457,13.0625 8.3862,31.90625 11.1814,41.875 10.20446,36.39298 9.62858,33.72484 7.56124,35.03183 -1.02646,0.64893 -3.88512,1.18851 -6.35258,1.19903 -4.26167,0.0181 -4.47915,0.22437 -4.34392,4.11845 0.0783,2.25463 1.39399,5.85708 2.92378,8.00547 3.06454,4.30376 3.64787,9.68953 1.21892,11.25421 -2.61825,1.68661 -14.94104,3.9787 -21.5625,4.01071 -3.4375,0.0166 -7.789727,-0.80524 -9.671616,-1.82635 z M 95.14898,287.67777 c 4.449089,-1.68717 5.23938,-6.52295 1.857512,-11.36606 -3.34303,-4.78749 -4.149273,-4.75182 -5.669768,0.25079 -1.107602,3.64415 -1.163338,3.46646 -0.541232,-1.72549 0.657053,-5.4836 0.338403,-6.27242 -6.059303,-15 -3.714057,-5.0666 -7.949478,-11.18076 -9.412048,-13.58701 -1.46257,-2.40625 -4.652876,-6.30164 -7.089567,-8.65643 l -4.430349,-4.28143 -4.258195,3.03143 c -2.342008,1.66729 -10.598832,9.09078 -18.348501,16.49665 -13.652075,13.04643 -14.038473,13.56208 -12.423702,16.57931 2.679169,5.00607 27.371552,28.30184 36.205607,34.15782 l 8.104433,5.3723 9.395567,-10.01516 c 5.167561,-5.50834 10.868857,-10.57387 12.669546,-11.25672 z m -6.898236,-2.26053 C 89.401264,280.62797 90,280.17467 90,284.0929 c 0,1.79275 -0.585046,3.62114 -1.300102,4.06306 -0.852738,0.52703 -1.007292,-0.41537 -0.449154,-2.73872 z M 65.15625,186.25 c 0.29916,-2.39328 1.934001,-7.00379 3.605639,-10.16846 1.545128,-2.92518 0.161416,-6.99464 -2.626212,-7.72363 -2.918397,-0.76317 -3.304473,-0.18597 -4.060292,6.07025 -0.328696,2.72077 -0.990306,5.93121 -1.470244,7.13434 -0.479937,1.20312 -0.548836,3.03125 -0.153108,4.0625 0.80243,2.0911 4.460208,2.57707 4.704217,0.625 z"
       id="path3420"
       inkscape:connector-curvature="0" />
    <path
       style="fill:#fa9491"
       d="m 87.1875,655.53504 c -1.890625,-1.02569 -3.507813,-2.40941 -3.59375,-3.07496 -0.08594,-0.66554 -0.226563,-1.91321 -0.3125,-2.77258 -0.08594,-0.85938 -1.437643,-2.12455 -3.003789,-2.8115 -1.994966,-0.87504 -3.078131,-2.69104 -3.617702,-6.06534 -0.607694,-3.8003 -1.496823,-5.06966 -4.214734,-6.01713 -1.894514,-0.66043 -3.725949,-2.27678 -4.069856,-3.59188 -0.596736,-2.28192 -0.919036,-2.30387 -7.058515,-0.48064 C 54.510566,632.7422 50,632.20571 50,629.375 c 0,-0.93859 -1.133168,-2.06619 -2.518151,-2.50576 -1.384983,-0.43958 -2.159138,-1.38013 -1.720345,-2.0901 0.438794,-0.70999 1.006292,-3.90387 1.26111,-7.09751 0.254816,-3.19364 1.260697,-9.9678 2.235291,-15.05369 0.974594,-5.08588 1.480081,-10.00775 1.123306,-10.9375 -0.356776,-0.92974 -0.225437,-2.67482 0.291863,-3.87794 0.5173,-1.20313 1.133766,-6.04181 1.369925,-10.75264 0.236159,-4.71082 0.974516,-10.61707 1.640794,-13.125 0.666278,-2.50792 1.515873,-10.18486 1.887989,-17.05986 0.422418,-7.80434 2.111802,-18.13479 4.497193,-27.5 2.101339,-8.25 4.027421,-15.84375 4.280181,-16.875 0.252762,-1.03125 0.545641,-1.875 0.650844,-1.875 0.1052,0 0.359741,-0.84375 0.56564,-1.875 0.205899,-1.03125 1.105598,-5.25 1.999331,-9.375 0.893733,-4.125 1.752535,-8.16958 1.90845,-8.98794 0.155915,-0.81836 0.879404,-3.34961 1.607753,-5.625 1.940734,-6.06291 2.633585,-14.04654 1.393191,-16.05354 -0.612816,-0.99156 -0.601405,-2.32798 0.02634,-3.08436 0.648865,-0.78184 0.565272,-3.38807 -0.201808,-6.29192 -0.720229,-2.72649 -1.391493,-6.22287 -1.4917,-7.76974 -0.100208,-1.54688 -0.54782,-2.8125 -0.994695,-2.8125 -0.446875,0 -0.826707,-1.82813 -0.844072,-4.0625 -0.01736,-2.23438 -0.908931,-9.00969 -1.981254,-15.05624 -1.072325,-6.04656 -1.891505,-11.39031 -1.820402,-11.875 0.0711,-0.4847 -0.0076,-1.30314 -0.174996,-1.81876 -0.167352,-0.51563 -0.418199,-1.35938 -0.557437,-1.875 -0.29694,-1.09963 -2.114464,-10.08381 -2.597465,-12.83952 -0.183357,-1.04612 -1.845419,-6.38987 -3.693475,-11.875 -2.637765,-7.82904 -3.189683,-11.27586 -2.567363,-16.03361 1.458855,-11.15322 7.500975,-24.77806 13.742321,-30.98862 l 4.571799,-4.54924 -8.223996,-4.00646 c -4.523198,-2.20355 -8.941613,-4.72408 -9.818699,-5.60116 -0.877086,-0.87709 -3.535949,-2.5981 -5.908582,-3.82448 C 45.968937,312.29243 33.812696,303.77701 30.443184,300.68774 29.655685,299.96573 27.164987,297.96875 24.908301,296.25 19.955456,292.47779 7.2694272,279.69787 2.836823,274.01517 -0.20972942,270.10943 -0.28488266,269.65074 1.3233377,264.77779 3.0067245,259.67707 9.6906078,248.50336 11.533936,247.70834 12.065271,247.47916 12.5,246.59356 12.5,245.74033 c 0,-0.85324 4.211716,-6.00949 9.35937,-11.45834 10.546414,-11.16349 12.766884,-14.04459 16.290998,-21.13793 1.361047,-2.73951 6.552757,-9.08111 11.537132,-14.09246 5.703566,-5.73442 9.077235,-10.14285 9.102254,-11.89406 0.03705,-2.593 0.153951,-2.63205 1.716181,-0.57333 1.980852,2.61039 5.744065,1.64866 5.744065,-1.46795 0,-1.16394 0.516688,-2.65064 1.148194,-3.30376 1.124762,-1.16326 1.914156,-6.66806 1.540306,-10.74126 -0.233933,-2.54876 -3.910744,-4.09899 -5.634219,-2.37553 -0.702721,0.70273 -1.34393,3.11179 -1.424909,5.35349 -0.185721,5.14121 -1.762948,9.9203 -3.017985,9.14464 -0.527241,-0.32585 -0.167793,-4.13089 0.798772,-8.45565 0.966565,-4.32475 2.272225,-10.2914 2.901466,-13.25922 0.62924,-2.96781 1.561674,-6.06156 2.072074,-6.875 0.510398,-0.81343 1.0972,-2.70792 1.304,-4.20998 0.2068,-1.50205 1.160907,-4.24392 2.120238,-6.09303 0.95933,-1.84911 1.447317,-4.13577 1.084414,-5.08149 -0.362902,-0.94571 -0.0039,-1.71947 0.797684,-1.71947 0.801629,0 1.101627,-0.57583 0.666661,-1.27961 -0.434965,-0.70379 0.05799,-3.65692 1.09544,-6.5625 1.037458,-2.90559 2.251829,-8.93914 2.698604,-13.40789 0.446774,-4.46875 1.026344,-10.23532 1.287934,-12.8146 0.261589,-2.57928 1.018152,-5.703341 1.681252,-6.942354 0.663099,-1.239014 0.751329,-2.987835 0.196064,-3.886271 -1.623972,-2.627645 -0.270004,-5.44586 5.475338,-11.396624 7.752641,-8.029836 8.712578,-8.633369 15.899466,-9.996335 5.545156,-1.051616 7.230446,-0.869845 11.615226,1.252793 2.82093,1.365589 6.82682,2.822459 8.90198,3.23749 2.07515,0.415031 4.87415,2.160514 6.22,3.87885 1.34585,1.718336 4.67591,5.288151 7.40014,7.932921 l 4.95312,4.808673 -0.043,11.025227 c -0.0496,12.71307 -1.98105,27.43265 -4.12529,31.43919 -0.8132,1.51949 -1.19616,3.21961 -0.85102,3.77806 0.34514,0.55844 -0.75385,3.04823 -2.4422,5.53286 -3.11112,4.57842 -4.17437,12.56986 -1.8625,13.99867 0.72743,0.44958 0.38464,2.47104 -0.86249,5.08629 -1.5199,3.18726 -1.70011,4.70977 -0.67842,5.73146 1.02169,1.02169 2.74504,-0.0319 6.48747,-3.96597 2.80293,-2.94649 5.09623,-5.8608 5.09623,-6.47627 0,-1.86698 10.86815,-11.966 15.25929,-14.17938 4.59776,-2.31754 12.24071,-9.15473 12.24071,-10.95023 0,-1.07406 5.18506,-10.27275 10.24005,-18.16659 C 179.76161,110.06899 185,99.083851 185,97.332095 c 0,-1.419469 4.97549,-9.484261 8.125,-13.169859 1.06706,-1.248684 18.54706,-20.053537 29.6875,-31.937594 1.89062,-2.016822 3.4375,-3.976297 3.4375,-4.354388 0,-0.601592 14.77573,-16.334389 18.125,-19.299022 2.38935,-2.11495 10.625,-7.242042 10.625,-6.614581 0,0.347219 1.00845,0.0916 2.241,-0.568041 1.25241,-0.670269 3.51856,-5.096246 5.13704,-10.033059 1.64757,-5.0255645 3.43609,-8.4999383 4.14879,-8.0594635 1.42837,0.8827879 0.26151,12.1123645 -1.62486,15.6370645 -0.95751,1.789144 -0.38466,2.962465 2.79332,5.721285 2.19881,1.908809 5.1493,4.581095 6.55662,5.938413 1.40734,1.357317 3.32793,2.580736 4.26798,2.718706 2.1328,0.313029 3.3596,1.47562 2.48257,2.352644 -0.78364,0.783641 -5.02562,1.869821 -10.68996,2.737215 -4.52948,0.693609 -4.58771,0.781561 -2.76853,4.180761 C 268.52299,44.411465 268.4317,45 267.16897,45 c -0.91793,0 -2.29496,-0.625988 -3.06006,-1.391085 -0.78174,-0.781744 -2.10732,-0.94842 -3.02622,-0.38051 -0.89933,0.555815 -4.4967,1.056294 -7.99417,1.112175 -4.27012,0.06822 -7.4317,0.911797 -9.62451,2.568011 -3.04307,2.298416 -13.90012,19.953554 -20.03234,32.575496 C 221.95776,82.517839 220.30142,85 219.75091,85 c -0.5505,0 -1.00091,0.733624 -1.00091,1.630274 0,0.896651 -1.80771,4.412276 -4.01713,7.8125 -5.87983,9.048876 -6.99591,10.899156 -8.32451,13.800756 -0.65945,1.44019 -2.23047,3.64077 -3.49117,4.89017 -3.24571,3.21662 -6.52268,8.92632 -15.82155,27.56709 -4.47923,8.97919 -9.03315,17.06368 -10.11984,17.96556 -1.08669,0.90186 -1.9758,2.31332 -1.9758,3.13658 0,0.82323 -1.54687,3.24795 -3.4375,5.38823 -6.91789,7.83141 -7.98267,9.3437 -12.27356,17.43194 -4.34931,8.19834 -4.35871,8.25107 -1.88231,10.5582 1.36886,1.27529 2.83421,2.3187 3.25632,2.3187 0.42211,0 3.58608,2.67187 7.03104,5.9375 3.44496,3.26562 6.9204,6.30885 7.72319,6.76274 2.52861,1.4296 1.71853,17.65133 -1.09044,21.83642 -4.51796,6.73128 -5.14699,8.67311 -5.42729,16.75447 -0.15421,4.44613 -1.13231,12.23403 -2.17356,17.30646 -1.04124,5.07242 -2.15408,13.79117 -2.47298,19.375 -0.31888,5.58382 -1.32901,15.77741 -2.24472,22.65241 -0.91571,6.875 -1.40074,13.20312 -1.07783,14.0625 0.32292,0.85937 0.15943,2.54687 -0.36331,3.75 -0.52272,1.20312 -1.01364,2.75 -1.09092,3.4375 -0.16195,1.44084 -2.73514,12.56208 -4.68829,20.26259 -1.75851,6.93315 -0.53103,12.81792 3.6679,17.58453 1.8806,2.13484 4.82551,5.64937 6.54426,7.81005 1.71875,2.16068 4.66289,5.70923 6.54254,7.88567 1.87964,2.17644 3.42651,4.33886 3.4375,4.80537 0.0112,0.46653 0.94462,1.77288 2.07476,2.90301 2.86758,2.86758 7.9452,10.49135 7.9452,11.92929 0,0.65696 0.52609,1.19449 1.16909,1.19449 0.643,0 1.881,1.96875 2.75111,4.375 0.87011,2.40625 2.06471,4.375 2.65469,4.375 0.58996,0 0.72501,0.5625 0.30011,1.25 -0.4249,0.6875 -0.24509,1.25 0.39958,1.25 0.64467,0 1.8975,1.82812 2.78407,4.0625 0.88656,2.23437 3.20481,6.48132 5.15165,9.43766 1.94684,2.95634 3.5397,5.86929 3.5397,6.47321 0,0.60394 0.70313,1.84137 1.5625,2.74984 1.41781,1.49884 2.74436,3.80768 9.79813,17.0536 2.85581,5.36278 2.50612,15.58071 -1.22698,35.8527 -1.09492,5.94579 -1.00584,9.30214 0.42886,16.15933 0.99597,4.76016 1.5489,9.07863 1.22877,9.59662 -0.32013,0.51799 0.028,1.31881 0.77355,1.7796 0.74558,0.4608 1.03467,1.67414 0.64243,2.69631 -0.39225,1.02219 0.1155,4.76217 1.1282,8.31107 1.01277,3.54891 2.18763,10.94417 2.61082,16.43392 0.42318,5.48976 1.0303,10.40349 1.34916,10.91941 0.85067,1.37643 2.94567,14.29785 3.60329,22.22423 0.31371,3.78125 1.44935,10.39861 2.52362,14.70526 1.07429,4.30664 1.59531,8.4094 1.15784,9.11725 -0.43748,0.70785 -0.28405,1.96549 0.34096,2.79474 0.625,0.82926 1.2888,3.19525 1.4751,5.25775 0.93164,10.31409 0.77501,11.22982 -2.13794,12.5 -2.30423,1.00475 -2.79473,2.07595 -2.5,5.45971 0.31542,3.621 1.06593,4.48466 5.36669,6.17574 2.75,1.08131 5.68028,2.84319 6.51171,3.91529 2.72707,3.5164 -0.31808,8.56186 -5.88671,9.7536 -1.03125,0.2207 -3.28125,0.71496 -5,1.09835 -6.93936,1.54792 -15.81616,1.83542 -19.0114,0.61572 -2.04947,-0.78234 -4.46652,-3.4099 -6.12233,-6.65555 -1.50476,-2.94957 -2.62541,-5.51886 -2.49032,-5.70952 0.13509,-0.19067 -1.02031,-2.59908 -2.56756,-5.35203 -3.01864,-5.37095 -6.45774,-6.97456 -11.98336,-5.58771 -4.48244,1.12501 -5.28289,2.59197 -5.30589,9.7239 -0.0143,4.43594 -0.49331,5.9375 -1.89414,5.9375 -1.43422,0 -1.875,-1.58021 -1.875,-6.72195 0,-7.40693 -1.18802,-9.08829 -6.875,-9.72994 -3.38931,-0.38241 -3.74274,-0.84391 -3.67445,-4.79811 0.0415,-2.40625 0.46356,-6.50446 0.93779,-9.10713 0.47424,-2.60267 1.14492,-10.75892 1.49044,-18.125 0.34551,-7.36608 0.89272,-14.79912 1.21602,-16.51787 1.20341,-6.39767 2.41438,-22.07576 2.16228,-27.99478 -0.14335,-3.36587 0.37548,-6.88626 1.15297,-7.82307 0.79687,-0.96018 1.10844,-3.58395 0.71411,-6.01388 -0.6498,-4.00423 0.45365,-14.61977 2.27834,-21.91827 1.01808,-4.07216 2.13185,-19.72185 2.13059,-29.93678 -8e-4,-6.44133 -0.48349,-8.45247 -2.40138,-10.00548 -1.3202,-1.06904 -3.20849,-3.76937 -4.19617,-6.00073 -0.9877,-2.23135 -2.221,-4.05701 -2.74068,-4.05701 -0.51967,0 -0.94486,-0.78676 -0.94486,-1.74836 0,-0.9616 -4.60329,-6.16473 -10.22953,-11.5625 -10.77045,-10.3331 -20.11791,-19.63404 -29.64918,-29.50164 -6.31479,-6.53763 -8.79107,-7.39495 -9.02609,-3.125 -0.53802,9.77505 -1.14892,15.94514 -2.4199,24.44065 -2.04286,13.65493 -2.1877,14.54933 -2.46916,15.24685 -0.13871,0.34375 -0.18223,1.05693 -0.0967,1.58484 0.0855,0.5279 -0.6871,2.97638 -1.71691,5.44107 -1.02981,2.46469 -1.99982,6.15365 -2.15557,8.1977 -0.15575,2.04405 -0.72278,3.98813 -1.26006,4.32019 -0.53728,0.33206 -0.97687,1.70318 -0.97687,3.04694 0,1.34375 -0.47974,3.41992 -1.06608,4.61372 -4.03199,8.20914 -5.54858,12.02105 -8.143258,20.46786 -2.621041,8.53264 -2.751973,9.97724 -1.231947,13.59233 0.935434,2.22474 1.960171,6.1094 2.277195,8.63259 0.317024,2.52317 1.40697,6.57542 2.42211,9.005 1.01514,2.42956 2.12524,6.7365 2.46689,9.57097 0.34165,2.83447 1.22215,6.27649 1.95666,7.64893 0.7345,1.37244 1.43198,4.07204 1.54994,5.9991 0.11796,1.92707 0.51973,4.06626 0.89282,4.75376 0.37309,0.6875 0.84251,2.375 1.04317,3.75 0.20065,1.375 1.19675,4.60937 2.21354,7.1875 1.01679,2.57812 1.50314,4.6875 1.08078,4.6875 -0.42236,0 -0.14144,0.75487 0.62428,1.67751 0.76571,0.92263 1.03568,2.03404 0.59993,2.46979 -0.43576,0.43576 -0.21458,1.509 0.4915,2.38499 1.16961,1.45106 3.27767,8.54497 3.44494,11.59271 0.0377,0.6875 0.50881,1.95312 1.04684,2.8125 0.53803,0.85937 0.69249,1.5625 0.34324,1.5625 -0.34924,0 0.16069,1.90431 1.13318,4.2318 0.97248,2.3275 2.08155,6.12437 2.46458,8.4375 0.38304,2.31314 1.34133,5.81758 2.12955,7.78766 1.24069,3.10103 1.11265,3.76129 -0.95371,4.91769 -1.31276,0.73465 -4.0798,1.37278 -6.14899,1.41804 -3.5022,0.0766 -3.77809,0.42781 -3.99264,5.08231 -0.14593,3.16566 0.44821,5.52442 1.6195,6.42949 2.56214,1.97976 3.70089,9.95293 1.75618,12.29617 -0.85441,1.0295 -1.99234,1.60058 -2.52874,1.26907 -0.53639,-0.33152 -3.35588,0.23718 -6.26552,1.26376 -6.70805,2.36674 -17.081792,2.31931 -21.538442,-0.0985 z M 78.021704,304.92301 c 2.397282,-2.10484 4.704761,-4.91734 5.12773,-6.25 0.42297,-1.33265 1.333809,-2.42301 2.024086,-2.42301 1.496356,0 4.814631,-3.14285 4.854866,-4.59821 0.01561,-0.56474 1.807839,-1.90347 3.982727,-2.97497 5.5857,-2.75189 6.945947,-7.57183 3.501862,-12.4086 C 96.037209,274.1957 94.024317,272.5 93.039883,272.5 92.055447,272.5 91.25,271.51265 91.25,270.3059 c 0,-1.20675 -3.075565,-6.40988 -6.834589,-11.5625 -3.759024,-5.15263 -7.746519,-10.98403 -8.861097,-12.95866 C 73.051708,241.351 65.569885,233.75 63.708264,233.75 c -2.307958,0 -10.128552,6.37306 -19.333264,15.75484 -4.8125,4.90507 -10.578125,10.15515 -12.8125,11.66685 -4.438941,3.00324 -4.862581,4.5283 -2.5,8.99975 2.38009,4.5046 29.975449,31.07856 32.273089,31.07856 0.525842,0 1.143577,0.49455 1.372745,1.09901 0.454935,1.19995 8.616345,6.38876 10.060671,6.39631 0.491703,0.003 2.855418,-1.71746 5.252699,-3.82231 z M 88.125,286.25 C 88.549899,285.5625 89.145595,285 89.448771,285 89.751947,285 90,285.5625 90,286.25 c 0,0.6875 -0.595698,1.25 -1.323771,1.25 -0.728074,0 -0.976128,-0.5625 -0.551229,-1.25 z"
       id="path3418"
       inkscape:connector-curvature="0" />
  </g>
</svg>
